<?xml version="1.0" encoding="utf-8"?>
<!-- Generator: Adobe Illustrator 26.0.2, SVG Export Plug-In . SVG Version: 6.00 Build 0)  -->
<svg version="1.1" id="Layer_1" xmlns="http://www.w3.org/2000/svg" xmlns:xlink="http://www.w3.org/1999/xlink" x="0px" y="0px"
	 viewBox="0 0 82.5 151.8" style="enable-background:new 0 0 82.5 151.8;" xml:space="preserve">
<style type="text/css">
	.st0{fill:#492300;}
	.st1{fill:#DBA055;}
	.st2{fill:#9E5B0F;}
	.st3{fill:#261306;}
	.st4{fill:#822200;}
	.st5{fill:#0071BC;}
	.st6{fill:#8C6239;}
	.st7{fill:#992800;}
	.st8{fill:#E8511C;}
	.st9{fill:#B02E00;}
	.st10{fill:#B3B3B3;}
	.st11{fill:#438DBF;}
	.st12{fill:#50A9E6;}
	.st13{fill:#BF7928;}
	.st14{fill:#E6E6E6;}
	.st15{fill:#808080;}
	.st16{fill:#C93400;}
	.st17{fill:#BF4316;}
	.st18{fill:#005085;}
	.st19{fill:#912600;}
	.st20{fill:#A12A00;}
	.st21{fill:#B33E15;}
	.st22{fill:#C94618;}
	.st23{fill:#FFBC00;}
	.st24{fill:#FF8B00;}
	.st25{fill:#F7901E;}
	.st26{fill:#FBC82D;}
	.st27{fill:#EF5104;}
	.st28{fill:#4F4F4F;}
	.st29{fill:#BFBFBF;}
	.st30{fill:#E5E5E5;}
	.st31{fill:#A1A1A1;}
	.st32{fill:#ACACAC;}
	.st33{fill:#7C7C7C;}
	.st34{fill:#393939;}
</style>
<g>
	<path class="st8" d="M70.2,137.9L64.6,32.8c0-2.8-1.8-5-4-5H41.2H21.9c-2.2,0-4,2.2-4,5l-5.6,105.1c0,0,0.4,6-8.5,6v7.9h8.5h29h29
		h8.5v-7.9C69.9,143.9,70.2,137.9,70.2,137.9z"/>
	<path class="st4" d="M61.3,27.8c-3.7-3.4-0.7-12.1-5.7-12.1c-2.9,0-14.4,0-14.4,0s-11.5,0-14.4,0c-4.9,0-2,8.7-5.7,12.1
		c1.6,0,7.3,0,9.9,0v-4.4c0-2.2,1.3-4,2.8-4h7.4h7.4c1.5,0,2.8,1.8,2.8,4v4.4C54,27.8,59.7,27.8,61.3,27.8L61.3,27.8z M26.7,20.9
		c-0.7,0-1.3-0.7-1.3-1.5c0-0.8,0.6-1.5,1.3-1.5c0.7,0,1.3,0.7,1.3,1.5C28,20.2,27.4,20.9,26.7,20.9L26.7,20.9z M55.8,17.9
		c0.7,0,1.3,0.7,1.3,1.5c0,0.8-0.6,1.5-1.3,1.5c-0.7,0-1.3-0.7-1.3-1.5C54.5,18.6,55.1,17.9,55.8,17.9L55.8,17.9z"/>
	<path class="st22" d="M78.7,143.9v7.9h-8.5h-29v-7.9V27.8h19.4c2.2,0,4,2.2,4,5l5.6,105.1C70.2,137.9,69.9,143.9,78.7,143.9z"/>
	<polygon class="st0" points="18.7,147.9 0,147.9 0,151.8 18.7,151.8 82.5,151.8 82.5,147.9 	"/>
	<polygon class="st3" points="73.1,147.9 82.5,147.9 82.5,151.8 73.1,151.8 41.2,151.8 41.2,147.9 	"/>
	<polygon class="st4" points="69,115.1 69.2,117.7 41.2,117.7 41.2,115.1 	"/>
	<polygon class="st10" points="68.3,101.3 69,115.1 41.2,115.1 41.2,101.3 	"/>
	<polygon class="st4" points="68.2,98.7 68.3,101.3 41.2,101.3 41.2,98.7 	"/>
	<polygon class="st4" points="66.7,71.8 66.9,74.4 41.2,74.4 41.2,71.8 	"/>
	<polygon class="st10" points="66,58 66.7,71.8 41.2,71.8 41.2,58 	"/>
	<polygon class="st4" points="65.8,55.4 66,58 41.2,58 41.2,55.4 	"/>
	<polygon class="st9" points="41.2,115.1 41.2,117.7 13.3,117.7 13.5,115.1 	"/>
	<polygon class="st14" points="41.2,101.3 41.2,115.1 13.5,115.1 14.2,101.3 	"/>
	<polygon class="st9" points="41.2,98.7 41.2,101.3 14.2,101.3 14.3,98.7 	"/>
	<polygon class="st9" points="41.2,71.8 41.2,74.4 15.6,74.4 15.8,71.8 	"/>
	<polygon class="st14" points="41.2,58 41.2,71.8 15.8,71.8 16.5,58 	"/>
	<polygon class="st9" points="41.2,55.4 41.2,58 16.5,58 16.6,55.4 	"/>
	<path class="st23" d="M32.2,23.4H20.8c-1.1,0-2-0.9-2-2v-7.1c0-1.1,0.9-2,2-2h11.4c1.1,0,2,0.9,2,2v7.1
		C34.2,22.6,33.3,23.4,32.2,23.4L32.2,23.4z"/>
	<path class="st24" d="M34.2,17.9H18.8v3.5c0,1.1,0.9,2,2,2h11.4c1.1,0,2-0.9,2-2V17.9L34.2,17.9z"/>
	<path class="st4" d="M33.6,7.1c0,3.9-3.2,7.1-7.1,7.1c-3.9,0-7.1-3.2-7.1-7.1S22.6,0,26.5,0C30.4,0,33.6,3.2,33.6,7.1L33.6,7.1z"/>
	<path class="st25" d="M32.6,7.1c0,3.4-2.7,6.1-6.1,6.1c-3.4,0-6.1-2.7-6.1-6.1S23.1,1,26.5,1C29.9,1,32.6,3.7,32.6,7.1L32.6,7.1z"
		/>
	<path class="st26" d="M26.5,5.5c-0.9,0-1.6,0.7-1.6,1.6c0,0.9,0.7,1.6,1.6,1.6c0.9,0,1.6-0.7,1.6-1.6C28.1,6.2,27.4,5.5,26.5,5.5
		L26.5,5.5z"/>
	<path class="st26" d="M29.1,6.9c-0.1,0-0.2,0.1-0.2,0.2c0,1.3-1.1,2.4-2.4,2.4c-0.1,0-0.2,0.1-0.2,0.2s0.1,0.2,0.2,0.2
		c1.6,0,2.9-1.3,2.9-2.9C29.4,7,29.3,6.9,29.1,6.9L29.1,6.9z M30.1,6.9c-0.1,0-0.2,0.1-0.2,0.2c0,1.9-1.5,3.4-3.4,3.4
		c-0.1,0-0.2,0.1-0.2,0.2s0.1,0.2,0.2,0.2c2.1,0,3.9-1.7,3.9-3.9C30.4,7,30.3,6.9,30.1,6.9L30.1,6.9z M31.1,6.9
		c-0.1,0-0.2,0.1-0.2,0.2c0,2.4-2,4.4-4.4,4.4c-0.1,0-0.2,0.1-0.2,0.2s0.1,0.2,0.2,0.2c2.7,0,4.9-2.2,4.9-4.9
		C31.4,7,31.3,6.9,31.1,6.9L31.1,6.9z M32.2,6.9c-0.1,0-0.2,0.1-0.2,0.2c0,3-2.4,5.4-5.4,5.4c-0.1,0-0.2,0.1-0.2,0.2
		s0.1,0.2,0.2,0.2c3.3,0,5.9-2.7,5.9-5.9C32.4,7,32.3,6.9,32.2,6.9L32.2,6.9z"/>
	<path class="st27" d="M26.5,4.2c-1.6,0-2.9,1.3-2.9,2.9c0,0.1,0.1,0.2,0.2,0.2c0.1,0,0.2-0.1,0.2-0.2c0-1.3,1.1-2.4,2.4-2.4
		c0.1,0,0.2-0.1,0.2-0.2S26.6,4.2,26.5,4.2L26.5,4.2z M26.5,3.2c-2.1,0-3.9,1.7-3.9,3.9c0,0.1,0.1,0.2,0.2,0.2
		c0.1,0,0.2-0.1,0.2-0.2c0-1.9,1.5-3.4,3.4-3.4c0.1,0,0.2-0.1,0.2-0.2S26.6,3.2,26.5,3.2L26.5,3.2z M26.5,2.2
		c-2.7,0-4.9,2.2-4.9,4.9c0,0.1,0.1,0.2,0.2,0.2c0.1,0,0.2-0.1,0.2-0.2c0-2.4,2-4.4,4.4-4.4c0.1,0,0.2-0.1,0.2-0.2
		S26.6,2.2,26.5,2.2L26.5,2.2z M26.5,1.2c-3.3,0-5.9,2.7-5.9,5.9c0,0.1,0.1,0.2,0.2,0.2c0.1,0,0.2-0.1,0.2-0.2c0-3,2.4-5.4,5.4-5.4
		c0.1,0,0.2-0.1,0.2-0.2S26.6,1.2,26.5,1.2L26.5,1.2z"/>
</g>
</svg>
